<?xml version="1.0" encoding="UTF-8" standalone="no"?>
<svg
   xmlns:x="adobe:ns:meta/"
   xmlns:dc="http://purl.org/dc/elements/1.1/"
   xmlns:cc="http://creativecommons.org/ns#"
   xmlns:rdf="http://www.w3.org/1999/02/22-rdf-syntax-ns#"
   xmlns:svg="http://www.w3.org/2000/svg"
   xmlns="http://www.w3.org/2000/svg"
   xmlns:xlink="http://www.w3.org/1999/xlink"
   xmlns:sodipodi="http://sodipodi.sourceforge.net/DTD/sodipodi-0.dtd"
   xmlns:inkscape="http://www.inkscape.org/namespaces/inkscape"
   viewBox="0 0 61.518292 90.509666"
   version="1.1"
   x="0px"
   y="0px"
   id="svg68"
   sodipodi:docname="logo.svg"
   inkscape:version="0.92.4 (5da689c313, 2019-01-14)"
   width="61.518291"
   height="90.509666"
   inkscape:export-filename="/home/dcordel/workspace/webu/projects/fosm_develop/app/python-env/src/dalec/logo.svg.png"
   inkscape:export-xdpi="399.48999"
   inkscape:export-ydpi="399.48999">
  <title
     id="title12983">DALEC</title>
  <defs
     id="defs72">
    <linearGradient
       y2="16"
       y1="238"
       x2="246"
       x1="24"
       gradientUnits="userSpaceOnUse"
       id="gradient">
      <stop
         id="stop12066"
         stop-color="#0a00b2"
         offset="0%" />
      <stop
         id="stop12068"
         stop-color="#ff0000"
         offset="50%" />
      <stop
         id="stop12070"
         stop-color="#fffc00"
         offset="100%" />
    </linearGradient>
    <style
       id="style12073">
			.wordmark {
				fill: #000000;
			}
			.petal {
				opacity: 0.65;
			}
			.petals {
				fill: url(#gradient);
			}
		</style>
    <linearGradient
       inkscape:collect="always"
       xlink:href="#gradient"
       id="linearGradient12244"
       gradientUnits="userSpaceOnUse"
       x1="24"
       y1="238"
       x2="246"
       y2="16" />
    <linearGradient
       inkscape:collect="always"
       xlink:href="#gradient"
       id="linearGradient12817"
       gradientUnits="userSpaceOnUse"
       x1="24"
       y1="238"
       x2="246"
       y2="16" />
    <linearGradient
       inkscape:collect="always"
       xlink:href="#gradient"
       id="linearGradient12819"
       gradientUnits="userSpaceOnUse"
       x1="24"
       y1="238"
       x2="246"
       y2="16" />
    <linearGradient
       inkscape:collect="always"
       xlink:href="#gradient"
       id="linearGradient12821"
       gradientUnits="userSpaceOnUse"
       x1="24"
       y1="238"
       x2="246"
       y2="16" />
    <linearGradient
       inkscape:collect="always"
       xlink:href="#gradient"
       id="linearGradient12823"
       gradientUnits="userSpaceOnUse"
       x1="24"
       y1="238"
       x2="246"
       y2="16" />
    <linearGradient
       inkscape:collect="always"
       xlink:href="#gradient"
       id="linearGradient12825"
       gradientUnits="userSpaceOnUse"
       x1="24"
       y1="238"
       x2="246"
       y2="16" />
    <linearGradient
       inkscape:collect="always"
       xlink:href="#gradient"
       id="linearGradient12827"
       gradientUnits="userSpaceOnUse"
       x1="24"
       y1="238"
       x2="246"
       y2="16" />
    <linearGradient
       inkscape:collect="always"
       xlink:href="#gradient"
       id="linearGradient12829"
       gradientUnits="userSpaceOnUse"
       x1="24"
       y1="238"
       x2="246"
       y2="16" />
    <linearGradient
       inkscape:collect="always"
       xlink:href="#gradient"
       id="linearGradient12831"
       gradientUnits="userSpaceOnUse"
       x1="24"
       y1="238"
       x2="246"
       y2="16" />
    <linearGradient
       inkscape:collect="always"
       xlink:href="#gradient"
       id="linearGradient12833"
       gradientUnits="userSpaceOnUse"
       x1="24"
       y1="238"
       x2="246"
       y2="16" />
    <linearGradient
       inkscape:collect="always"
       xlink:href="#gradient"
       id="linearGradient12835"
       gradientUnits="userSpaceOnUse"
       x1="24"
       y1="238"
       x2="246"
       y2="16" />
    <linearGradient
       inkscape:collect="always"
       xlink:href="#gradient"
       id="linearGradient12837"
       gradientUnits="userSpaceOnUse"
       x1="24"
       y1="238"
       x2="246"
       y2="16" />
    <linearGradient
       inkscape:collect="always"
       xlink:href="#gradient"
       id="linearGradient12839"
       gradientUnits="userSpaceOnUse"
       x1="24"
       y1="238"
       x2="246"
       y2="16" />
    <linearGradient
       inkscape:collect="always"
       xlink:href="#gradient"
       id="linearGradient12841"
       gradientUnits="userSpaceOnUse"
       x1="24"
       y1="238"
       x2="246"
       y2="16" />
    <linearGradient
       inkscape:collect="always"
       xlink:href="#gradient"
       id="linearGradient12843"
       gradientUnits="userSpaceOnUse"
       x1="24"
       y1="238"
       x2="246"
       y2="16" />
    <linearGradient
       inkscape:collect="always"
       xlink:href="#gradient"
       id="linearGradient12845"
       gradientUnits="userSpaceOnUse"
       x1="24"
       y1="238"
       x2="246"
       y2="16" />
    <linearGradient
       inkscape:collect="always"
       xlink:href="#gradient"
       id="linearGradient12847"
       gradientUnits="userSpaceOnUse"
       x1="24"
       y1="238"
       x2="246"
       y2="16" />
    <linearGradient
       inkscape:collect="always"
       xlink:href="#gradient"
       id="linearGradient12849"
       gradientUnits="userSpaceOnUse"
       x1="24"
       y1="238"
       x2="246"
       y2="16" />
    <linearGradient
       inkscape:collect="always"
       xlink:href="#gradient"
       id="linearGradient12851"
       gradientUnits="userSpaceOnUse"
       x1="24"
       y1="238"
       x2="246"
       y2="16" />
    <linearGradient
       inkscape:collect="always"
       xlink:href="#gradient"
       id="linearGradient12853"
       gradientUnits="userSpaceOnUse"
       x1="24"
       y1="238"
       x2="246"
       y2="16" />
    <linearGradient
       inkscape:collect="always"
       xlink:href="#gradient"
       id="linearGradient12855"
       gradientUnits="userSpaceOnUse"
       x1="24"
       y1="238"
       x2="246"
       y2="16" />
    <linearGradient
       inkscape:collect="always"
       xlink:href="#gradient"
       id="linearGradient12857"
       gradientUnits="userSpaceOnUse"
       x1="24"
       y1="238"
       x2="246"
       y2="16" />
    <linearGradient
       inkscape:collect="always"
       xlink:href="#gradient"
       id="linearGradient12859"
       gradientUnits="userSpaceOnUse"
       x1="24"
       y1="238"
       x2="246"
       y2="16" />
    <linearGradient
       inkscape:collect="always"
       xlink:href="#gradient"
       id="linearGradient12861"
       gradientUnits="userSpaceOnUse"
       x1="24"
       y1="238"
       x2="246"
       y2="16" />
    <linearGradient
       inkscape:collect="always"
       xlink:href="#gradient"
       id="linearGradient12863"
       gradientUnits="userSpaceOnUse"
       x1="24"
       y1="238"
       x2="246"
       y2="16" />
    <linearGradient
       inkscape:collect="always"
       xlink:href="#gradient"
       id="linearGradient12865"
       gradientUnits="userSpaceOnUse"
       x1="24"
       y1="238"
       x2="246"
       y2="16" />
    <linearGradient
       inkscape:collect="always"
       xlink:href="#gradient"
       id="linearGradient12867"
       gradientUnits="userSpaceOnUse"
       x1="24"
       y1="238"
       x2="246"
       y2="16" />
    <linearGradient
       inkscape:collect="always"
       xlink:href="#gradient"
       id="linearGradient12869"
       gradientUnits="userSpaceOnUse"
       x1="24"
       y1="238"
       x2="246"
       y2="16" />
    <linearGradient
       inkscape:collect="always"
       xlink:href="#gradient"
       id="linearGradient12871"
       gradientUnits="userSpaceOnUse"
       x1="24"
       y1="238"
       x2="246"
       y2="16" />
    <linearGradient
       inkscape:collect="always"
       xlink:href="#gradient"
       id="linearGradient12873"
       gradientUnits="userSpaceOnUse"
       x1="24"
       y1="238"
       x2="246"
       y2="16" />
    <linearGradient
       inkscape:collect="always"
       xlink:href="#gradient"
       id="linearGradient12875"
       gradientUnits="userSpaceOnUse"
       x1="24"
       y1="238"
       x2="246"
       y2="16" />
  </defs>
  <sodipodi:namedview
     pagecolor="#ffffff"
     bordercolor="#666666"
     borderopacity="1"
     objecttolerance="10"
     gridtolerance="10"
     guidetolerance="10"
     inkscape:pageopacity="0"
     inkscape:pageshadow="2"
     inkscape:window-width="1920"
     inkscape:window-height="1063"
     id="namedview70"
     showgrid="false"
     inkscape:zoom="5.6568543"
     inkscape:cx="-24.436194"
     inkscape:cy="50.848022"
     inkscape:window-x="0"
     inkscape:window-y="0"
     inkscape:window-maximized="1"
     inkscape:current-layer="svg68"
     fit-margin-top="0"
     fit-margin-left="0"
     fit-margin-bottom="0"
     fit-margin-right="0"
     units="px" />
  <desc
     id="desc4">Created with Sketch.</desc>
  <metadata
     id="metadata6">
<?xpacket begin="&#65279;" id="W5M0MpCehiHzreSzNTczkc9d"?>    <x:xmpmeta
       x:xmptk="Adobe XMP Core 5.6-c137 79.159547, 2016/07/07-11:39:24        " />
<?xpacket end="w"?>    <rdf:RDF>
      <cc:Work
         rdf:about="">
        <dc:format>image/svg+xml</dc:format>
        <dc:type
           rdf:resource="http://purl.org/dc/dcmitype/StillImage" />
        <dc:title>DALEC</dc:title>
        <dc:creator>
          <cc:Agent>
            <dc:title>Webu</dc:title>
          </cc:Agent>
        </dc:creator>
        <dc:contributor>
          <cc:Agent>
            <dc:title>Dylann CORDEL
indirectely, all authors of all logos used into this one
+ original dalek icon by Tatyana Kyul: https://thenounproject.com/kyul/</dc:title>
          </cc:Agent>
        </dc:contributor>
        <dc:description>Ugly but meaningful (and funny) logo for the django app &quot;Django Aggregator of a Lot External Contents&quot;, aka &quot;DALEC&quot;</dc:description>
        <cc:license
           rdf:resource="http://creativecommons.org/publicdomain/zero/1.0/" />
      </cc:Work>
      <cc:License
         rdf:about="http://creativecommons.org/publicdomain/zero/1.0/">
        <cc:permits
           rdf:resource="http://creativecommons.org/ns#Reproduction" />
        <cc:permits
           rdf:resource="http://creativecommons.org/ns#Distribution" />
        <cc:permits
           rdf:resource="http://creativecommons.org/ns#DerivativeWorks" />
      </cc:License>
    </rdf:RDF>
  </metadata>
  <rect
     style="fill:#ffffff;fill-opacity:1;stroke:none;stroke-width:1.00143993;stroke-opacity:1"
     id="rect1058"
     width="61.518291"
     height="90.509666"
     x="0"
     y="0" />
  <path
     style="fill:#000000;fill-rule:nonzero;stroke:none;stroke-width:0.80215406"
     d="m 35.570292,9.023369 c 0.09013,-0.365072 0.478022,-0.57032 0.83056,-0.439482 4.426553,1.642831 7.741949,5.462961 8.721826,10.099592 0.08306,0.393017 -0.218086,0.762293 -0.619775,0.760001 -5.756021,-0.03286 -11.830378,-0.05398 -17.842789,-0.0657 -2.104357,-0.0041 -4.050647,-0.0067 -5.791356,-0.0082 -0.609226,-5.13e-4 -1.149229,-8.82e-4 -1.614088,-10e-4 -0.278848,-1.1e-4 -0.470756,-1.47e-4 -0.573232,-1.57e-4 -0.39808,10e-6 -0.697118,-0.371044 -0.611754,-0.763603 1.002017,-4.607941 4.312741,-8.396806 8.720415,-10.026614 v -4.8e-5 c 0.352696,-0.130414 0.740339,0.0753 0.830033,0.440479 l -1.005128,0.985735 c -3.459033,1.490552 -6.090337,4.476489 -7.123068,8.104706 v -2.3e-5 c 0.408769,1.94e-4 0.869212,4.94e-4 1.377883,9.62e-4 1.74116,0.0014 3.687913,0.0041 5.792752,0.0082 5.733704,0.01119 11.523768,0.03092 17.040769,0.06121 -1.017037,-3.654169 -3.653477,-6.666501 -7.129103,-8.169119"
     id="path16"
     inkscape:connector-curvature="0"
     sodipodi:nodetypes="csccscccscccccccccc" />
  <path
     style="fill:#000000;fill-rule:nonzero;stroke:none;stroke-width:0.80215406"
     d="m 17.176376,34.693957 28.146968,-0.0629 -1.446637,-6.476346 H 19.314882 Z m 1.508716,-7.798825 h 25.821405 c 0.347824,0 0.565855,0.287894 0.62979,0.62979 l 1.446637,7.735928 c 0.06394,0.341897 -0.281967,0.629047 -0.62979,0.62979 l -29.406548,0.0629 c -0.347824,7.44e-4 -0.721772,-0.29435 -0.629791,-0.62979 l 2.138506,-7.798826 c 0.09198,-0.335441 0.281967,-0.62979 0.629791,-0.62979 z"
     id="path26"
     inkscape:connector-curvature="0"
     sodipodi:nodetypes="cccccsssssssss" />
  <path
     style="fill:#000000;fill-rule:nonzero;stroke:none;stroke-width:0.80215406"
     d="m 48.012779,28.923529 -8.43082,3.278652 c -0.324173,0.126067 -0.689165,-0.03453 -0.815232,-0.358703 -0.126068,-0.324173 0.03452,-0.689165 0.358702,-0.815233 l 8.43082,-3.278652 c 0.324173,-0.126067 0.689165,0.03453 0.815233,0.358702 0.126067,0.324174 -0.03453,0.689166 -0.358703,0.815234 z"
     id="path46"
     inkscape:connector-curvature="0" />
  <path
     style="fill:#000000;fill-rule:nonzero;stroke:none;stroke-width:0.80215406"
     d="m 12.744519,26.634803 -0.456531,1.173934 11.336227,4.408533 0.45653,-1.173935 z m -0.456531,1.173934 11.336227,4.408533 c 0.782623,0.304354 1.239153,-0.869581 0.45653,-1.173935 L 12.744519,26.634803 c -0.782624,-0.304354 -1.239154,0.869581 -0.456531,1.173934 z"
     id="path48"
     inkscape:connector-curvature="0" />
  <path
     style="fill:#000000;fill-rule:nonzero;stroke:none;stroke-width:0.80215406"
     d="m 27.548887,11.593306 c 0.07876,-0.517772 0.718325,-0.718777 1.079129,-0.339154 0.768434,0.808517 1.830176,1.274022 2.967779,1.274022 1.137602,0 2.199343,-0.465505 2.967778,-1.274022 0.360803,-0.379623 1.000363,-0.178618 1.079128,0.339154 0.03104,0.204068 0.04673,0.411148 0.04673,0.619972 0,2.260854 -1.832783,4.093637 -4.093637,4.093637 -2.260854,0 -4.093638,-1.832783 -4.093638,-4.093637 0,-0.208824 0.01569,-0.415904 0.04673,-0.619972 z m 4.046908,3.454028 c 1.272549,0 2.349205,-0.838718 2.707335,-1.993525 -0.807676,0.474169 -1.737095,0.733945 -2.707335,0.733945 -0.970241,0 -1.899659,-0.259776 -2.707337,-0.733945 0.358131,1.154807 1.434787,1.993525 2.707337,1.993525 z"
     id="path56"
     inkscape:connector-curvature="0" />
  <g
     id="g1370"
     transform="translate(1.4335202,-5.5103311)">
    <g
       transform="translate(0,-0.26370491)"
       id="g1352">
      <ellipse
         style="fill:none;fill-opacity:1;stroke:#000000;stroke-width:1.39999998;stroke-miterlimit:4;stroke-dasharray:none;stroke-opacity:1"
         id="path932"
         cx="47.713261"
         cy="51.319553"
         rx="4.8453345"
         ry="4.8944068" />
      <ellipse
         style="fill:none;fill-opacity:1;stroke:#000000;stroke-width:1.39999998;stroke-miterlimit:4;stroke-dasharray:none;stroke-opacity:1"
         id="path932-6"
         cx="49.748859"
         cy="64.721268"
         rx="4.8453345"
         ry="4.8944068" />
      <ellipse
         style="fill:none;fill-opacity:1;stroke:#000000;stroke-width:1.39999998;stroke-miterlimit:4;stroke-dasharray:none;stroke-opacity:1"
         id="path932-7"
         cx="51.572876"
         cy="77.174919"
         rx="4.8453345"
         ry="4.8944068" />
    </g>
    <g
       id="g1360">
      <path
         style="fill:none;stroke:#000000;stroke-width:1.39999998;stroke-linecap:round;stroke-linejoin:round;stroke-miterlimit:4;stroke-dasharray:none;stroke-opacity:1"
         d="m 46.226613,45.977887 -0.743248,-2.901344 -7.067942,0.01466 0.09974,41.799317 12.777371,-0.07816 -0.600217,-2.857249"
         id="path1006"
         inkscape:connector-curvature="0"
         sodipodi:nodetypes="cccccc" />
      <path
         style="fill:none;stroke:#000000;stroke-width:1.39999998;stroke-linecap:butt;stroke-linejoin:miter;stroke-miterlimit:4;stroke-dasharray:none;stroke-opacity:1"
         d="m 47.358763,56.230138 0.566075,3.773834"
         id="path1008"
         inkscape:connector-curvature="0"
         sodipodi:nodetypes="cc" />
      <path
         style="fill:none;stroke:#000000;stroke-width:1.39999998;stroke-linecap:butt;stroke-linejoin:miter;stroke-miterlimit:4;stroke-dasharray:none;stroke-opacity:1"
         d="m 49.056989,69.690148 0.628972,3.270657"
         id="path1010"
         inkscape:connector-curvature="0"
         sodipodi:nodetypes="cc" />
    </g>
  </g>
  <rect
     style="fill:none;fill-opacity:1;stroke:#000000;stroke-width:1.39999998;stroke-linecap:round;stroke-linejoin:round;stroke-miterlimit:4;stroke-dasharray:none;stroke-opacity:1"
     id="rect1067"
     width="12.955525"
     height="41.762375"
     x="24.372576"
     y="37.587578" />
  <ellipse
     ry="4.8944068"
     rx="4.8453345"
     cy="45.545517"
     cx="-12.553893"
     id="ellipse1372"
     style="fill:none;fill-opacity:1;stroke:#000000;stroke-width:1.39999998;stroke-miterlimit:4;stroke-dasharray:none;stroke-opacity:1"
     transform="scale(-1,1)" />
  <ellipse
     ry="4.8944068"
     rx="4.8453345"
     cy="58.947235"
     cx="-10.518294"
     id="ellipse1374"
     style="fill:none;fill-opacity:1;stroke:#000000;stroke-width:1.39999998;stroke-miterlimit:4;stroke-dasharray:none;stroke-opacity:1"
     transform="scale(-1,1)" />
  <g
     id="g1386"
     transform="matrix(-1,0,0,1,60.267154,-5.5103311)">
    <path
       style="fill:none;stroke:#000000;stroke-width:1.39999998;stroke-linecap:round;stroke-linejoin:round;stroke-miterlimit:4;stroke-dasharray:none;stroke-opacity:1"
       d="m 46.226613,45.977887 -0.743248,-2.901344 -7.067942,0.01466 0.09974,41.799317 12.777371,-0.07816 -0.600217,-2.857249"
       id="path1380"
       inkscape:connector-curvature="0"
       sodipodi:nodetypes="cccccc" />
    <path
       style="fill:none;stroke:#000000;stroke-width:1.39999998;stroke-linecap:butt;stroke-linejoin:miter;stroke-miterlimit:4;stroke-dasharray:none;stroke-opacity:1"
       d="m 47.358763,56.230138 0.566075,3.773834"
       id="path1382"
       inkscape:connector-curvature="0"
       sodipodi:nodetypes="cc" />
    <path
       style="fill:none;stroke:#000000;stroke-width:1.39999998;stroke-linecap:butt;stroke-linejoin:miter;stroke-miterlimit:4;stroke-dasharray:none;stroke-opacity:1"
       d="m 49.056989,69.690148 0.628972,3.270657"
       id="path1384"
       inkscape:connector-curvature="0"
       sodipodi:nodetypes="cc" />
  </g>
  <path
     style="fill:none;fill-opacity:1;stroke:#000000;stroke-width:1.39999998;stroke-linecap:round;stroke-linejoin:round;stroke-miterlimit:4;stroke-dasharray:none;stroke-opacity:1"
     d="M 5.1388707,81.6513 H 56.991624 c 1.195048,1.761123 1.257945,2.968882 0,4.981594 H 5.1388707 c -1.8869174,-0.628972 -1.9498146,-4.101033 0,-4.981594 z"
     id="rect1438"
     inkscape:connector-curvature="0"
     sodipodi:nodetypes="ccccc" />
  <path
     inkscape:connector-curvature="0"
     id="path1052"
     d="m 25.586463,59.915099 c 0,2.436973 1.652104,4.502502 3.890521,5.142679 -1.187287,0.55638 -2.019083,1.762077 -2.019083,3.150829 0,1.909868 1.569958,3.479826 3.479816,3.479826 1.909865,0 3.480538,-1.569958 3.480538,-3.479826 0,-1.388752 -0.832299,-2.594449 -2.019801,-3.150829 2.238583,-0.640177 3.891239,-2.705706 3.891239,-5.142679 0,-2.41895 -1.627729,-4.473945 -3.841063,-5.1305 1.160539,-0.566656 1.969625,-1.757427 1.969625,-3.126459 0,-1.909865 -1.570673,-3.480535 -3.480538,-3.480535 -1.909858,0 -3.479816,1.57067 -3.479816,3.480535 0,1.369032 0.808578,2.559803 1.96891,3.126459 -2.213162,0.656555 -3.840348,2.71155 -3.840348,5.1305 z m 2.042738,0 c 0,-1.839639 1.468889,-3.309238 3.308516,-3.309238 1.839628,0 3.309238,1.469599 3.309238,3.309238 0,1.839628 -1.46961,3.308514 -3.309238,3.308514 -1.839627,0 -3.308516,-1.468886 -3.308516,-3.308514 z m 1.871437,8.293508 c 0,-0.805978 0.631098,-1.437794 1.437079,-1.437794 0.805991,0 1.437801,0.631816 1.437801,1.437794 0,0.805988 -0.63181,1.437094 -1.437801,1.437094 -0.805981,0 -1.437079,-0.631106 -1.437079,-1.437094 z m 0,-16.550467 c 0,-0.805994 0.631098,-1.4378 1.437079,-1.4378 0.805991,0 1.437801,0.631815 1.437801,1.4378 0,0.805978 -0.63181,1.437082 -1.437801,1.437082 -0.805981,0 -1.437079,-0.631104 -1.437079,-1.437082 z"
     style="color:#000000;font-style:normal;font-variant:normal;font-weight:normal;font-stretch:normal;font-size:medium;line-height:normal;font-family:sans-serif;text-indent:0;text-align:start;text-decoration:none;text-decoration-line:none;text-decoration-style:solid;text-decoration-color:#000000;letter-spacing:normal;word-spacing:normal;text-transform:none;writing-mode:lr-tb;direction:ltr;baseline-shift:baseline;text-anchor:start;white-space:normal;clip-rule:nonzero;display:inline;overflow:visible;visibility:visible;opacity:1;isolation:auto;mix-blend-mode:normal;color-interpolation:sRGB;color-interpolation-filters:linearRGB;solid-color:#000000;solid-opacity:1;fill:#0082c9;fill-opacity:1;fill-rule:nonzero;stroke:none;stroke-width:1.14897192;stroke-linecap:butt;stroke-linejoin:miter;stroke-miterlimit:10;stroke-dasharray:none;stroke-dashoffset:0;stroke-opacity:1;color-rendering:auto;image-rendering:auto;shape-rendering:auto;text-rendering:auto;enable-background:accumulate"
     inkscape:export-filename="Nextcloud Hub logo variants.png"
     inkscape:export-xdpi="300"
     inkscape:export-ydpi="300" />
  <g
     transform="matrix(0.02046335,0,0,0.02046335,4.6341117,53.398325)"
     id="g2200">
    <path
       id="path50_5_"
       class="st3"
       d="m 292.778,434.892 v 0 L 354.977,243.57 H 230.669 Z"
       inkscape:connector-curvature="0"
       style="fill:#e24329" />
    <path
       id="path66_12_"
       class="st4"
       d="m 143.549,243.57 v 0 l -18.941,58.126 c -1.714,5.278 0.137,11.104 4.661,14.394 l 163.509,118.801 z"
       inkscape:connector-curvature="0"
       style="fill:#fca326" />
    <path
       id="path74_5_"
       class="st3"
       d="m 143.549,243.57 h 87.12 L 193.175,128.346 c -1.919,-5.895 -10.282,-5.895 -12.27,0 z"
       inkscape:connector-curvature="0"
       style="fill:#e24329" />
    <path
       id="path82_12_"
       class="st4"
       d="m 442.097,243.57 v 0 l 18.873,58.126 c 1.714,5.278 -0.137,11.104 -4.661,14.394 L 292.778,434.892 Z"
       inkscape:connector-curvature="0"
       style="fill:#fca326" />
    <path
       id="path86_5_"
       class="st3"
       d="m 442.097,243.57 h -87.12 l 37.425,-115.224 c 1.919,-5.895 10.282,-5.895 12.27,0 z"
       inkscape:connector-curvature="0"
       style="fill:#e24329" />
    <polygon
       class="st5"
       points="354.977,243.57 442.097,243.57 292.778,434.892 "
       id="polygon2196"
       style="fill:#fc6d26" />
    <polygon
       class="st5"
       points="143.549,243.57 230.669,243.57 292.778,434.892 "
       id="polygon2198"
       style="fill:#fc6d26" />
  </g>
  <g
     transform="matrix(0.08821825,0,0,0.08821825,46.196199,20.184189)"
     id="g4212">
    <path
       sodipodi:nodetypes="ssccss"
       d="M 51.84,0 C 23.68,0 -0.03,22.83 -0.03,51 v 52.81 l 51.86,-0.05 c 28.16,0 51,-23.71 51,-51.87 C 102.83,23.73 79.97,0 51.84,0 Z"
       id="path3638"
       inkscape:connector-curvature="0" />
    <path
       d="m 52.37,19.74 c -11.14,0.0066 -21.45,5.873 -27.15,15.44 -5.7,9.567 -5.942,21.43 -0.6404,31.23 l -5.72,18.4 20.54,-4.64 c 11.76,5.299 25.56,2.919 34.87,-6.013 9.308,-8.933 12.25,-22.63 7.442,-34.6 -4.811,-11.97 -16.41,-19.82 -29.31,-19.82 z"
       id="path3640"
       inkscape:connector-curvature="0"
       style="fill:#fff9ae" />
    <path
       d="M 77.09,70.91 C 68.111,82.24 52.59,86.03 39.4,80.116 l -20.54,4.7 20.91,-2.47 c 13.86,8.12 31.61,4.547 41.25,-8.304 9.64,-12.851 8.104,-30.89 -3.571,-41.93 8.765,11.49 8.616,27.47 -0.3626,38.79 z"
       id="path3642"
       inkscape:connector-curvature="0"
       style="fill:#00aeef" />
    <path
       d="M 75.32,64.91 C 67.573,77.11 52.54,82.5 38.8,78 L 18.86,84.82 39.4,80.17 c 14.63,6.608 31.89,1.199 40.13,-12.58 8.24,-13.78 4.844,-31.54 -7.897,-41.3 9.917,10.51 11.44,26.42 3.689,38.62 z"
       id="path3644"
       inkscape:connector-curvature="0"
       style="fill:#00a94f" />
    <path
       d="M 26.47,67.11 C 20.745,53.31 25.463,37.39 37.78,28.93 50.1,20.477 66.65,21.801 77.47,32.106 67.45,18.956 49,15.746 35.13,24.743 21.26,33.737 16.66,51.893 24.58,66.403 l -5.72,18.4 z"
       id="path3646"
       inkscape:connector-curvature="0"
       style="fill:#f15d22" />
    <path
       d="m 24.58,66.41 c -7.103,-13.12 -4.065,-29.42 7.288,-39.1 11.35,-9.681 27.93,-10.11 39.76,-1.018 -11.35,-11.95 -29.98,-13.18 -42.8,-2.81 -12.82,10.37 -15.52,28.84 -6.202,42.44 l -3.76,18.9 z"
       id="path3648"
       inkscape:connector-curvature="0"
       style="fill:#d0232b" />
  </g>
  <path
     inkscape:connector-curvature="0"
     d="M 48.558842,5.6799479 H 47.969 a 1.4675074,1.4675074 0 0 0 -1.474983,1.466012 V 8.924462 h -2.595613 a 1.4675074,1.4675074 0 0 0 -1.474983,1.467258 v 1.179939 c 0,0.814369 0.660365,1.483455 1.474983,1.483455 h 0.589844 c 0.814617,0 1.474983,-0.669086 1.474983,-1.483455 V 10.39172 c 0,-0.01968 0,-0.04984 -0.0015,-0.04984 h -0.883397 v 1.230279 c 0,0.325198 -0.264644,0.598065 -0.590091,0.598065 h -0.589849 c -0.325449,0 -0.590092,-0.274116 -0.590092,-0.598065 v -1.180445 a 0.58311551,0.58311551 0 0 1 0.590092,-0.581119 h 4.65994 c 0.814618,0 1.474984,-0.669093 1.474984,-1.483704 V 7.1469519 a 1.4675074,1.4675074 0 0 0 -1.474485,-1.467009 z m 0.590093,2.6459511 c 0,0.325446 -0.264642,0.598067 -0.590093,0.598067 H 47.378906 V 7.1469559 A 0.58311551,0.58311551 0 0 1 47.969,6.5658329 h 0.589842 a 0.58311551,0.58311551 0 0 1 0.590093,0.581123 z"
     style="fill:#0770b8;stroke-width:0.02491947"
     id="path4354-7" />
  <g
     transform="matrix(0.00367092,0,0,-0.00367092,50.625656,73.856139)"
     id="g2991">
    <path
       d="M 384,192 Q 384,112 328,56 272,0 192,0 112,0 56,56 0,112 0,192 q 0,80 56,136 56,56 136,56 80,0 136,-56 56,-56 56,-136 z M 896,69 Q 898,41 879,21 861,0 832,0 H 697 Q 672,0 654,16.5 636,33 634,58 612,287 449.5,449.5 287,612 58,634 33,636 16.5,654 0,672 0,697 v 135 q 0,29 21,47 17,17 43,17 h 5 Q 229,883 375,815.5 521,748 634,634 748,521 815.5,375 883,229 896,69 Z m 512,-2 Q 1410,40 1390,20 1372,0 1344,0 H 1201 Q 1175,0 1156.5,17.5 1138,35 1137,60 1125,275 1036,468.5 947,662 804.5,804.5 662,947 468.5,1036 275,1125 60,1138 35,1139 17.5,1157.5 0,1176 0,1201 v 143 q 0,28 20,46 18,18 44,18 h 3 Q 329,1395 568.5,1288 808,1181 994,994 1181,808 1288,568.5 1395,329 1408,67 Z"
       id="path2993"
       inkscape:connector-curvature="0"
       style="fill:currentColor" />
  </g>
  <path
     inkscape:connector-curvature="0"
     d="m 26.872367,21.068538 9.24129,-0.0629 c 0.323989,-0.0022 0.589086,0.265088 0.589086,0.589085 v 3.031337 c 0,0.323998 -0.265097,0.586881 -0.589086,0.589086 l -9.24129,0.0629 c -0.323989,0.0022 -0.589086,-0.265088 -0.589086,-0.589086 v -3.031337 c 0,-0.323997 0.265097,-0.58688 0.589086,-0.589085 z"
     id="path5611"
     style="fill:none;fill-opacity:1;stroke:#000000;stroke-width:0.80000001;stroke-miterlimit:4;stroke-dasharray:none;stroke-opacity:1"
     sodipodi:nodetypes="sssssssss" />
  <path
     style="fill:none;stroke:#000000;stroke-width:0.69999999;stroke-miterlimit:4;stroke-dasharray:none;stroke-opacity:1"
     d="m 36.702741,21.091548 -5.304076,2.281941 -5.115384,-2.219043"
     id="polyline5613"
     inkscape:connector-curvature="0"
     sodipodi:nodetypes="ccc" />
  <g
     transform="matrix(0.02676402,0,0,0.02676402,9.737149,42.505259)"
     id="g6841">
    <path
       style="fill:#2b90d9"
       inkscape:connector-curvature="0"
       id="path6269"
       d="m 211.80734,139.0875 c -3.18125,16.36625 -28.4925,34.2775 -57.5625,37.74875 -15.15875,1.80875 -30.08375,3.47125 -45.99875,2.74125 -26.0275,-1.1925 -46.565,-6.2125 -46.565,-6.2125 0,2.53375 0.15625,4.94625 0.46875,7.2025 3.38375,25.68625 25.47,27.225 46.39125,27.9425 21.11625,0.7225 39.91875,-5.20625 39.91875,-5.20625 l 0.8675,19.09 c 0,0 -14.77,7.93125 -41.08125,9.39 -14.50875,0.7975 -32.52375,-0.365 -53.50625,-5.91875 C 9.23234,213.82 1.40609,165.31125 0.20859,116.09125 -0.15641,101.4775 0.06859,87.6975 0.06859,76.1725 0.06859,25.8425 33.04484,11.09 33.04484,11.09 49.67234,3.45375 78.20359,0.2425 107.86484,0 h 0.72875 c 29.66125,0.2425 58.21125,3.45375 74.8375,11.09 0,0 32.975,14.7525 32.975,65.0825 0,0 0.41375,37.13375 -4.59875,62.915" />
    <path
       style="fill:#ffffff"
       inkscape:connector-curvature="0"
       id="path6271"
       d="m 177.50984,80.077 v 60.94125 h -24.14375 v -59.15 c 0,-12.46875 -5.24625,-18.7975 -15.74,-18.7975 -11.6025,0 -17.4175,7.5075 -17.4175,22.3525 V 117.7995 H 96.20734 V 85.42325 c 0,-14.845 -5.81625,-22.3525 -17.41875,-22.3525 -10.49375,0 -15.74,6.32875 -15.74,18.7975 v 59.15 H 38.90484 V 80.077 c 0,-12.455 3.17125,-22.3525 9.54125,-29.675 6.56875,-7.3225 15.17125,-11.07625 25.85,-11.07625 12.355,0 21.71125,4.74875 27.8975,14.2475 l 6.01375,10.08125 6.015,-10.08125 c 6.185,-9.49875 15.54125,-14.2475 27.8975,-14.2475 10.6775,0 19.28,3.75375 25.85,11.07625 6.36875,7.3225 9.54,17.22 9.54,29.675" />
  </g>
  <g
     transform="matrix(0.01099422,-0.00234418,0.00234418,0.01099422,-12.083671,23.210754)"
     style="stroke-width:32"
     id="g6924">
    <path
       style="fill:#211f20"
       inkscape:connector-curvature="0"
       d="m 2799,-911 v 341.344 l 256,-170.656"
       id="path6918" />
    <path
       style="fill:#737373"
       inkscape:connector-curvature="0"
       d="m 2799,-569.656 v 341.344 l 256,-170.656"
       id="path6920" />
    <path
       style="fill:#f1680d"
       inkscape:connector-curvature="0"
       d="M 3055,-740.344 V -399 l 256,-170.656"
       id="path6922" />
  </g>
  <path
     style="fill:#f6c700;fill-opacity:1;stroke:#000000;stroke-width:0.69999999;stroke-linecap:round;stroke-linejoin:round;stroke-miterlimit:4;stroke-dasharray:none;stroke-opacity:1"
     d="m 44.801189,21.316653 c -0.01771,-0.188046 -0.125159,-0.337922 -0.262006,-0.367102 -0.599812,0 -5.398187,0 -5.997998,0 -0.149893,0.03199 -0.264615,0.208678 -0.264615,0.42163 0,0.342343 0,3.080503 0,3.4227 0,0.235794 0.140365,0.426935 0.313637,0.426935 0.589936,0 5.310015,0 5.899956,0 0.159541,0 0.291282,-0.162256 0.311026,-0.37226 0,-0.706352 0,-3.178801 0,-3.531903 z"
     id="use7603"
     inkscape:connector-curvature="0" />
  <g
     id="g7607"
     transform="matrix(0.00935742,0,0,0.00935742,38.989247,21.629129)">
    <path
       style="fill-opacity:0;stroke:#000000;stroke-width:1;stroke-opacity:0"
       d="M 575,24.91 C 573.44,12.15 563.97,1.98 551.91,0 499.05,0 76.18,0 23.32,0 10.11,2.17 0,14.16 0,28.61 c 0,23.23 0,209.03 0,232.25 0,16 12.37,28.97 27.64,28.97 51.99,0 467.96,0 519.95,0 14.06,0 25.67,-11.01 27.41,-25.26 0,-47.93 0,-215.7 0,-239.66 z"
       id="use7605"
       inkscape:connector-curvature="0" />
  </g>
  <g
     id="g8996"
     transform="translate(1.1891252,-5.4085292)">
    <path
       inkscape:connector-curvature="0"
       id="use7611"
       d="m 38.287847,27.684435 h 0.426979 v 1.643631 h -0.426979 z"
       style="fill:#000000;fill-opacity:1;stroke-width:0.00935742" />
    <g
       transform="matrix(0.00935742,0,0,0.00935742,37.63891,27.139459)"
       id="g7615">
      <path
         inkscape:connector-curvature="0"
         id="use7613"
         d="m 69.35,58.24 h 45.63 V 233.89 H 69.35 Z"
         style="fill-opacity:0;stroke:#000000;stroke-width:1;stroke-opacity:0" />
    </g>
    <path
       inkscape:connector-curvature="0"
       id="use7619"
       d="m 39.521623,28.441544 c -0.03668,-0.250498 -0.05708,-0.389737 -0.0611,-0.417528 -0.01787,-0.134092 -0.0349,-0.250779 -0.05118,-0.350342 -0.03696,0 -0.221397,0 -0.553585,0 v 1.643631 h 0.374016 l 0.0013,-1.085274 0.157392,1.085274 h 0.266406 l 0.14925,-1.109416 0.0014,1.109416 h 0.3728 v -1.643631 h -0.557796 z"
       style="fill:#000000;fill-opacity:1;stroke-width:0.00935742" />
    <g
       transform="matrix(0.00935742,0,0,0.00935742,37.63891,27.139459)"
       id="g7623">
      <path
         inkscape:connector-curvature="0"
         id="use7621"
         d="m 201.2,139.15 c -3.92,-26.77 -6.1,-41.65 -6.53,-44.62 -1.91,-14.33 -3.73,-26.8 -5.47,-37.44 -3.95,0 -23.66,0 -59.16,0 v 175.65 h 39.97 l 0.14,-115.98 16.82,115.98 h 28.47 l 15.95,-118.56 0.15,118.56 h 39.84 V 57.09 h -59.61 z"
         style="fill-opacity:0;stroke:#000000;stroke-width:1;stroke-opacity:0" />
    </g>
    <path
       inkscape:connector-curvature="0"
       id="use7627"
       d="m 40.883221,28.015594 c 0.0047,0.02096 0.0071,0.0685 0.0071,0.142794 0,0.06372 0,0.573517 0,0.637241 0,0.109388 -0.0071,0.176387 -0.02124,0.201091 -0.01422,0.0247 -0.05203,0.03696 -0.113318,0.03696 0,-0.107892 0,-0.97102 0,-1.078911 0.04651,0 0.07823,0.005 0.09507,0.01469 0.01684,0.0098 0.0277,0.02517 0.03238,0.04613 z m 0.192857,1.284961 c 0.05081,-0.01113 0.09348,-0.03079 0.128103,-0.05876 0.03453,-0.02807 0.05876,-0.06691 0.07261,-0.116594 0.01394,-0.04959 0.02218,-0.148128 0.02218,-0.295507 0,-0.05764 0,-0.519431 0,-0.577166 0,-0.15552 -0.0061,-0.259762 -0.01553,-0.312725 -0.0095,-0.05306 -0.03322,-0.101247 -0.07112,-0.144478 -0.03799,-0.04323 -0.09339,-0.0743 -0.166188,-0.0932 -0.0729,-0.0189 -0.191734,-0.02845 -0.398439,-0.02845 -0.02124,0 -0.127355,0 -0.318527,0 v 1.643631 h 0.517278 c 0.119214,-0.0037 0.195758,-0.0093 0.229632,-0.01675 z"
       style="fill:#000000;fill-opacity:1;stroke-width:0.00935742" />
    <g
       transform="matrix(0.00935742,0,0,0.00935742,37.63891,27.139459)"
       id="g7631">
      <path
         inkscape:connector-curvature="0"
         id="use7629"
         d="m 346.71,93.63 c 0.5,2.24 0.76,7.32 0.76,15.26 0,6.81 0,61.29 0,68.1 0,11.69 -0.76,18.85 -2.27,21.49 -1.52,2.64 -5.56,3.95 -12.11,3.95 0,-11.53 0,-103.77 0,-115.3 4.97,0 8.36,0.53 10.16,1.57 1.8,1.05 2.96,2.69 3.46,4.93 z m 20.61,137.32 c 5.43,-1.19 9.99,-3.29 13.69,-6.28 3.69,-3 6.28,-7.15 7.76,-12.46 1.49,-5.3 2.37,-15.83 2.37,-31.58 0,-6.16 0,-55.51 0,-61.68 0,-16.62 -0.65,-27.76 -1.66,-33.42 -1.02,-5.67 -3.55,-10.82 -7.6,-15.44 -4.06,-4.62 -9.98,-7.94 -17.76,-9.96 -7.79,-2.02 -20.49,-3.04 -42.58,-3.04 -2.27,0 -13.61,0 -34.04,0 v 175.65 h 55.28 c 12.74,-0.4 20.92,-0.99 24.54,-1.79 z"
         style="fill-opacity:0;stroke:#000000;stroke-width:1;stroke-opacity:0" />
    </g>
    <path
       inkscape:connector-curvature="0"
       id="use7635"
       d="m 41.987865,29.054923 c -0.0079,0.02087 -0.0423,0.03144 -0.06831,0.03144 -0.02545,0 -0.04239,-0.01011 -0.051,-0.03041 -0.0086,-0.02021 -0.01282,-0.06634 -0.01282,-0.138583 0,-0.04342 0,-0.390953 0,-0.434372 0,-0.07486 0.0037,-0.121553 0.01132,-0.140174 0.0075,-0.01843 0.02396,-0.02779 0.04941,-0.02779 0.02601,0 0.06092,0.01057 0.0699,0.03182 0.0089,0.02124 0.01338,0.06662 0.01338,0.13615 0,0.02807 0,0.168434 0,0.421178 -0.0027,0.08656 -0.0066,0.136805 -0.01188,0.150748 z m -0.543479,0.248065 h 0.384402 c 0.016,-0.06279 0.0248,-0.09769 0.02657,-0.104709 0.03481,0.04211 0.07308,0.07374 0.115097,0.0947 0.04183,0.02105 0.104429,0.03153 0.1529,0.03153 0.06747,0 0.12567,-0.01769 0.174797,-0.05315 0.04903,-0.03537 0.08029,-0.07729 0.09357,-0.125483 0.01329,-0.04828 0.01993,-0.121646 0.01993,-0.220274 0,-0.04613 0,-0.415001 0,-0.461133 0,-0.09919 -0.0022,-0.163942 -0.0066,-0.194354 -0.0044,-0.03041 -0.0175,-0.06139 -0.0393,-0.09311 -0.0218,-0.03172 -0.05352,-0.05633 -0.09507,-0.07392 -0.04155,-0.01759 -0.09058,-0.02639 -0.147099,-0.02639 -0.04913,0 -0.112008,0.0098 -0.153929,0.02919 -0.04183,0.01937 -0.07982,0.04875 -0.11388,0.08815 0,-0.03565 0,-0.213817 0,-0.534683 h -0.411352 z"
       style="fill:#000000;fill-opacity:1;stroke-width:0.00935742" />
    <g
       transform="matrix(0.00935742,0,0,0.00935742,37.63891,27.139459)"
       id="g7639">
      <path
         inkscape:connector-curvature="0"
         id="use7637"
         d="m 464.76,204.7 c -0.84,2.23 -4.52,3.36 -7.3,3.36 -2.72,0 -4.53,-1.08 -5.45,-3.25 -0.92,-2.16 -1.37,-7.09 -1.37,-14.81 0,-4.64 0,-41.78 0,-46.42 0,-8 0.4,-12.99 1.21,-14.98 0.8,-1.97 2.56,-2.97 5.28,-2.97 2.78,0 6.51,1.13 7.47,3.4 0.95,2.27 1.43,7.12 1.43,14.55 0,3 0,18 0,45.01 -0.29,9.25 -0.71,14.62 -1.27,16.11 z m -58.08,26.51 h 41.08 c 1.71,-6.71 2.65,-10.44 2.84,-11.19 3.72,4.5 7.81,7.88 12.3,10.12 4.47,2.25 11.16,3.37 16.34,3.37 7.21,0 13.43,-1.89 18.68,-5.68 5.24,-3.78 8.58,-8.26 10,-13.41 1.42,-5.16 2.13,-13 2.13,-23.54 0,-4.93 0,-44.35 0,-49.28 0,-10.6 -0.24,-17.52 -0.71,-20.77 -0.47,-3.25 -1.87,-6.56 -4.2,-9.95 -2.33,-3.39 -5.72,-6.02 -10.16,-7.9 -4.44,-1.88 -9.68,-2.82 -15.72,-2.82 -5.25,0 -11.97,1.05 -16.45,3.12 -4.47,2.07 -8.53,5.21 -12.17,9.42 0,-3.81 0,-22.85 0,-57.14 h -43.96 z"
         style="fill-opacity:0;stroke:#000000;stroke-width:1;stroke-opacity:0" />
    </g>
  </g>
  <path
     inkscape:connector-curvature="0"
     style="fill:#ff0000;stroke:#000000;stroke-width:0.6540845;stroke-miterlimit:4;stroke-dasharray:none;stroke-opacity:1"
     d="m 24.591392,21.541306 c -0.07076,-0.265348 -0.280088,-0.474677 -0.546418,-0.54642 -0.481557,-0.128737 -2.413678,-0.128737 -2.413678,-0.128737 0,0 -1.93114,0 -2.41368,0.128737 -0.265346,0.07076 -0.474677,0.28009 -0.546418,0.54642 -0.128737,0.481556 -0.128737,1.486927 -0.128737,1.486927 0,0 0,1.005373 0.128737,1.486928 0.07076,0.265348 0.280088,0.474677 0.546418,0.54642 0.48254,0.128737 2.41368,0.128737 2.41368,0.128737 0,0 1.932121,0 2.413678,-0.128737 0.265347,-0.07076 0.474677,-0.28009 0.546418,-0.54642 0.128737,-0.481555 0.128737,-1.486928 0.128737,-1.486928 0,0 0,-1.005371 -0.128737,-1.486927 z"
     id="path8349" />
  <polygon
     transform="matrix(0.07512546,0,0,0.07512546,19.043983,20.76709)"
     style="fill:#ffffff"
     points="26.6,39.43 42.93,30 26.6,20.57 "
     id="polygon8351" />
  <g
     transform="matrix(0.02064248,0,0,0.02014275,34.904795,31.921897)"
     id="layer1">
    <path
       inkscape:connector-curvature="0"
       id="path3611"
       style="fill:#1da1f2;fill-opacity:1;fill-rule:nonzero;stroke:none"
       d="m 633.89823,812.04479 c 112.46038,0 173.95627,-93.16765 173.95627,-173.95625 0,-2.64628 -0.0539,-5.28062 -0.1726,-7.90305 11.93799,-8.63016 22.31446,-19.39999 30.49762,-31.65984 -10.95459,4.86937 -22.74358,8.14741 -35.11071,9.62551 12.62341,-7.56929 22.31446,-19.54304 26.88583,-33.81739 -11.81284,7.00307 -24.89517,12.09297 -38.82383,14.84055 -11.15723,-11.88436 -27.04079,-19.31655 -44.62892,-19.31655 -33.76374,0 -61.14426,27.38052 -61.14426,61.13233 0,4.79784 0.5364,9.46458 1.58538,13.94057 -50.81546,-2.55686 -95.87353,-26.88582 -126.02546,-63.87991 -5.25082,9.03545 -8.27852,19.53111 -8.27852,30.73006 0,21.21186 10.79366,39.93837 27.20766,50.89296 -10.03077,-0.30992 -19.45363,-3.06348 -27.69044,-7.64676 -0.009,0.25652 -0.009,0.50661 -0.009,0.78077 0,29.60957 21.07478,54.3319 49.0513,59.93435 -5.13757,1.40062 -10.54335,2.15158 -16.12196,2.15158 -3.93364,0 -7.76596,-0.38716 -11.49099,-1.1026 7.78383,24.2932 30.35457,41.97073 57.11525,42.46543 -20.92578,16.40207 -47.28712,26.17062 -75.93712,26.17062 -4.92898,0 -9.79834,-0.28036 -14.58427,-0.84634 27.05868,17.34379 59.18936,27.46396 93.72193,27.46396" />
  </g>
  <path
     inkscape:connector-curvature="0"
     id="path24"
     style="fill:#000000;fill-opacity:1;fill-rule:evenodd;stroke:none;stroke-width:0.34360209"
     d="m 9.523494,66.393486 c -3.0907003,0 -5.5965905,2.50589 -5.5965905,5.597278 0,2.472905 1.6035954,4.570595 3.8277313,5.311058 0.2800322,0.0512 0.3820812,-0.121635 0.3820812,-0.270071 0,-0.13263 -0.0052,-0.484822 -0.0075,-0.951778 C 6.5723225,76.418078 6.2438398,75.329546 6.2438398,75.329546 5.9892248,74.683231 5.622257,74.511086 5.622257,74.511086 5.1140762,74.163705 5.660745,74.170577 5.660745,74.170577 c 0.5617942,0.03986 0.857287,0.576907 0.857287,0.576907 0.4992581,0.855226 1.3101558,0.608175 1.629021,0.465237 0.05082,-0.361812 0.195166,-0.608518 0.355281,-0.748365 -1.2428098,-0.14122 -2.5495228,-0.621576 -2.5495228,-2.766341 0,-0.610924 0.2181831,-1.110522 0.5762202,-1.501884 -0.057691,-0.141564 -0.2497988,-0.71057 0.054664,-1.481269 0,0 0.4700495,-0.150498 1.5393376,0.573815 0.446338,-0.12404 0.925319,-0.186232 1.401205,-0.188293 0.475206,0.0021 0.954186,0.06425 1.401212,0.188293 1.068602,-0.724313 1.537618,-0.573815 1.537618,-0.573815 0.305465,0.770699 0.113394,1.339705 0.0557,1.481269 0.358716,0.391362 0.575533,0.89096 0.575533,1.501884 0,2.150262 -1.308782,2.623403 -2.555715,2.761874 0.201009,0.172832 0.380028,0.514373 0.380028,1.036647 0,0.748023 -0.0066,1.351732 -0.0066,1.535215 0,0.149811 0.100682,0.324017 0.384837,0.269384 2.222415,-0.741837 3.824636,-2.838153 3.824636,-5.310371 0,-3.091388 -2.506237,-5.597278 -5.597625,-5.597278" />
  <path
     inkscape:connector-curvature="0"
     style="fill:#f05133;stroke-width:0.05593754"
     d="m 54.218229,58.668266 -2.782615,-2.782272 c -0.160103,-0.160249 -0.419988,-0.160249 -0.580294,0 l -0.57778,0.577835 0.732893,0.732894 c 0.170382,-0.05753 0.36567,-0.01895 0.50142,0.11682 0.136454,0.136622 0.174749,0.333578 0.115779,0.504529 l 0.706379,0.706379 c 0.170896,-0.05889 0.368069,-0.02085 0.504529,0.115857 0.19078,0.190725 0.19078,0.499775 0,0.69055 -0.190808,0.190836 -0.499858,0.190836 -0.690773,0 -0.143451,-0.143565 -0.178934,-0.354337 -0.106276,-0.531083 L 51.382715,58.141 l -5.5e-5,1.733559 c 0.04651,0.02303 0.09041,0.05376 0.129164,0.09235 0.190725,0.190701 0.190725,0.499695 0,0.690717 -0.190781,0.190696 -0.499969,0.190696 -0.690548,0 -0.190754,-0.191005 -0.190754,-0.499999 0,-0.690717 0.04715,-0.04705 0.101692,-0.08268 0.159891,-0.10655 v -1.749667 c -0.05823,-0.02377 -0.112714,-0.05913 -0.159925,-0.106562 -0.144488,-0.144374 -0.179285,-0.356434 -0.105185,-0.533861 l -0.72249,-0.722602 -1.907805,1.907751 c -0.1603,0.160372 -0.1603,0.420259 0,0.580519 l 2.782446,2.782277 c 0.160193,0.160251 0.41999,0.160251 0.580408,0 l 2.769579,-2.769132 c 0.160249,-0.160328 0.160249,-0.420292 0,-0.580575"
     id="path9688" />
  <path
     style="fill:#000000;fill-rule:nonzero;stroke:none;stroke-width:0.80215406"
     d="m 31.584218,13.732908 c -2.956501,0 -5.353219,-2.396717 -5.353219,-5.353219 0,-2.9565011 2.396718,-5.353218 5.353219,-5.353218 2.956501,0 5.353217,2.3967169 5.353217,5.353218 0,2.956502 -2.396716,5.353219 -5.353217,5.353219 z m 0,-1.25958 c 2.260853,0 4.093637,-1.832785 4.093637,-4.093639 0,-2.2608541 -1.832784,-4.0936368 -4.093637,-4.0936368 -2.260854,0 -4.093638,1.8327827 -4.093638,4.0936368 0,2.260854 1.832784,4.093639 4.093638,4.093639 z"
     id="path18"
     inkscape:connector-curvature="0"
     sodipodi:nodetypes="ssssssssss" />
  <g
     style="fill:url(#linearGradient12244)"
     id="petals"
     class="petals"
     transform="matrix(0.03878899,0,0,0.03878899,26.376174,3.452886)">
    <path
       style="opacity:0.65;fill:url(#linearGradient12817)"
       inkscape:connector-curvature="0"
       class="petal"
       d="m 103.283,45.02 c -0.647,8.246 0.645,16.05 5.16,23.1 a 23.041,23.041 0 0 0 13.04,9.63 5.672,5.672 0 0 0 4.719,-1.153 c 6.093,-5.8 9.031,-12.89 8,-21.625 -1.829,-15.522 -11.06,-26.108 -22.808,-36.2 -4.568,8.766 -7.394,17.145 -8.111,26.248 z"
       id="path12078" />
    <path
       style="opacity:0.65;fill:url(#linearGradient12819)"
       inkscape:connector-curvature="0"
       class="petal"
       d="m 86.913,53.254 c 1.081,8.2 3.968,15.565 9.849,21.519 a 23.04,23.04 0 0 0 14.757,6.709 5.673,5.673 0 0 0 4.376,-2.109 c 4.754,-6.944 6.154,-14.486 3.331,-22.816 C 114.21,41.757 102.98,33.319 89.39,25.889 86.743,35.417 85.719,44.2 86.913,53.254 Z"
       id="path12080" />
    <path
       style="opacity:0.65;fill:url(#linearGradient12821)"
       inkscape:connector-curvature="0"
       class="petal"
       d="m 72.611,64.711 c 2.762,7.8 7.117,14.4 14.108,19 a 23.04,23.04 0 0 0 15.83,3.494 5.673,5.673 0 0 0 3.842,-2.973 c 3.206,-7.78 3.007,-15.449 -1.486,-23.01 C 96.921,47.786 84.183,41.87 69.345,37.429 68.737,47.3 69.561,56.1 72.611,64.711 Z"
       id="path12082" />
    <path
       style="opacity:0.65;fill:url(#linearGradient12823)"
       inkscape:connector-curvature="0"
       class="petal"
       d="m 61,78.891 c 4.323,7.052 9.955,12.605 17.75,15.653 A 23.04,23.04 0 0 0 94.96,94.67 5.671,5.671 0 0 0 98.1,90.963 C 99.619,82.686 97.83,75.226 91.863,68.763 81.263,57.28 67.57,54.142 52.133,52.882 53.595,62.666 56.232,71.107 61,78.891 Z"
       id="path12084" />
    <path
       style="opacity:0.65;fill:url(#linearGradient12825)"
       inkscape:connector-curvature="0"
       class="petal"
       d="m 52.6,95.174 c 5.694,6 12.358,10.26 20.617,11.62 A 23.038,23.038 0 0 0 89.1,103.548 5.673,5.673 0 0 0 91.4,99.269 C 91.165,90.857 87.864,83.932 80.684,78.853 67.925,69.825 53.884,69.602 38.52,71.579 c 3.459,9.265 7.793,16.973 14.08,23.595 z"
       id="path12086" />
    <path
       style="opacity:0.65;fill:url(#linearGradient12827)"
       inkscape:connector-curvature="0"
       class="petal"
       d="m 47.764,112.849 c 6.817,4.684 14.222,7.467 22.582,7.08 a 23.035,23.035 0 0 0 14.86,-6.478 5.671,5.671 0 0 0 1.36,-4.663 C 84.587,100.609 79.919,94.522 71.839,91.046 57.483,84.868 43.7,87.57 29.086,92.7 c 5.314,8.341 11.152,14.979 18.678,20.149 z"
       id="path12088" />
    <path
       style="opacity:0.65;fill:url(#linearGradient12829)"
       inkscape:connector-curvature="0"
       class="petal"
       d="m 46.709,131.144 c 7.642,3.164 15.463,4.346 23.561,2.23 a 23.043,23.043 0 0 0 13.189,-9.426 5.671,5.671 0 0 0 0.361,-4.844 c -3.636,-7.589 -9.468,-12.573 -18.094,-14.293 -15.328,-3.058 -28.248,2.45 -41.477,10.5 6.929,7.062 14.024,12.34 22.46,15.833 z"
       id="path12090" />
    <path
       style="opacity:0.65;fill:url(#linearGradient12831)"
       inkscape:connector-curvature="0"
       class="petal"
       d="m 49.481,149.257 c 8.133,1.506 16.029,1.037 23.509,-2.717 a 23.041,23.041 0 0 0 10.941,-11.962 5.67,5.67 0 0 0 -0.654,-4.813 c -5.135,-6.667 -11.876,-10.33 -20.67,-10.219 -15.629,0.2 -27.121,8.27 -38.386,18.9 8.244,5.461 16.279,9.154 25.26,10.811 z"
       id="path12092" />
    <path
       style="opacity:0.65;fill:url(#linearGradient12833)"
       inkscape:connector-curvature="0"
       class="petal"
       d="m 55.958,166.4 c 8.268,-0.218 15.894,-2.319 22.431,-7.546 a 23.037,23.037 0 0 0 8.211,-13.976 5.67,5.67 0 0 0 -1.64,-4.572 c -6.409,-5.454 -13.764,-7.635 -22.343,-5.7 -15.243,3.443 -24.806,13.73 -33.617,26.469 9.2,3.625 17.83,5.565 26.958,5.325 z"
       id="path12094" />
    <path
       style="opacity:0.65;fill:url(#linearGradient12835)"
       inkscape:connector-curvature="0"
       class="petal"
       d="m 65.857,181.82 c 8.042,-1.933 15.065,-5.573 20.372,-12.045 a 23.039,23.039 0 0 0 5.129,-15.375 5.672,5.672 0 0 0 -2.555,-4.131 c -7.4,-4 -15.05,-4.606 -23.039,-0.928 -14.2,6.536 -21.413,18.586 -27.381,32.878 9.754,1.634 18.596,1.734 27.474,-0.399 z"
       id="path12096" />
    <path
       style="opacity:0.65;fill:url(#linearGradient12837)"
       inkscape:connector-curvature="0"
       class="petal"
       d="m 78.747,194.845 c 7.465,-3.562 13.577,-8.583 17.422,-16.017 a 23.039,23.039 0 0 0 1.82,-16.108 5.671,5.671 0 0 0 -3.358,-3.51 c -8.073,-2.375 -15.679,-1.376 -22.728,3.883 -12.529,9.344 -17.08,22.631 -19.947,37.852 9.88,-0.427 18.55,-2.167 26.791,-6.1 z"
       id="path12098" />
    <path
       style="opacity:0.65;fill:url(#linearGradient12839)"
       inkscape:connector-curvature="0"
       class="petal"
       d="m 94.062,204.906 c 6.561,-5.036 11.5,-11.219 13.712,-19.289 a 23.042,23.042 0 0 0 -1.569,-16.135 5.67,5.67 0 0 0 -4.014,-2.735 c -8.391,-0.645 -15.623,1.914 -21.425,8.523 -10.312,11.746 -12,25.689 -11.641,41.173 9.575,-2.472 17.695,-5.977 24.937,-11.537 z"
       id="path12100" />
    <path
       style="opacity:0.65;fill:url(#linearGradient12841)"
       inkscape:connector-curvature="0"
       class="petal"
       d="m 111.135,211.562 c 5.371,-6.29 8.912,-13.363 9.4,-21.718 a 23.035,23.035 0 0 0 -4.89,-15.456 5.666,5.666 0 0 0 -4.5,-1.84 c -8.341,1.113 -14.883,5.119 -19.184,12.791 -7.644,13.633 -6.4,27.622 -2.826,42.693 8.859,-4.409 16.072,-9.525 22,-16.47 z"
       id="path12102" />
    <path
       style="opacity:0.65;fill:url(#linearGradient12843)"
       inkscape:connector-curvature="0"
       class="petal"
       d="m 129.219,214.524 c 3.945,-7.27 5.939,-14.924 4.68,-23.2 a 23.038,23.038 0 0 0 -8,-14.1 5.674,5.674 0 0 0 -4.78,-0.866 c -7.927,2.823 -13.494,8.1 -16.106,16.5 -4.643,14.924 -0.516,28.349 6.112,42.348 7.747,-6.153 13.739,-12.657 18.094,-20.682 z"
       id="path12104" />
    <path
       style="opacity:0.65;fill:url(#linearGradient12845)"
       inkscape:connector-curvature="0"
       class="petal"
       d="m 147.523,213.661 c 2.348,-7.931 2.706,-15.833 -0.245,-23.665 a 23.042,23.042 0 0 0 -10.753,-12.131 5.671,5.671 0 0 0 -4.855,0.147 c -7.167,4.41 -11.514,10.731 -12.323,19.489 -1.439,15.563 5.389,27.837 14.783,40.152 6.294,-7.629 10.802,-15.237 13.393,-23.992 z"
       id="path12106" />
    <path
       style="opacity:0.65;fill:url(#linearGradient12847)"
       inkscape:connector-curvature="0"
       class="petal"
       d="m 165.248,209.011 c 0.648,-8.246 -0.645,-16.049 -5.16,-23.1 a 23.038,23.038 0 0 0 -13.04,-9.631 5.67,5.67 0 0 0 -4.719,1.154 c -6.093,5.8 -9.031,12.89 -8,21.624 1.829,15.523 11.06,26.108 22.808,36.2 4.569,-8.765 7.397,-17.144 8.111,-26.247 z"
       id="path12108" />
    <path
       style="opacity:0.65;fill:url(#linearGradient12849)"
       inkscape:connector-curvature="0"
       class="petal"
       d="m 181.619,200.778 c -1.081,-8.2 -3.968,-15.565 -9.849,-21.519 a 23.043,23.043 0 0 0 -14.758,-6.709 5.669,5.669 0 0 0 -4.375,2.109 c -4.754,6.944 -6.155,14.486 -3.331,22.816 5.015,14.8 16.245,23.238 29.835,30.668 2.648,-9.529 3.672,-18.313 2.478,-27.365 z"
       id="path12110" />
    <path
       style="opacity:0.65;fill:url(#linearGradient12851)"
       inkscape:connector-curvature="0"
       class="petal"
       d="m 195.92,189.321 c -2.762,-7.8 -7.117,-14.4 -14.108,-19 a 23.04,23.04 0 0 0 -15.83,-3.494 5.668,5.668 0 0 0 -3.841,2.972 c -3.207,7.781 -3.008,15.45 1.485,23.01 7.984,13.437 20.723,19.353 35.56,23.8 0.608,-9.877 -0.216,-18.682 -3.266,-27.288 z"
       id="path12112" />
    <path
       style="opacity:0.65;fill:url(#linearGradient12853)"
       inkscape:connector-curvature="0"
       class="petal"
       d="m 207.527,175.14 c -4.323,-7.051 -9.956,-12.6 -17.751,-15.652 a 23.039,23.039 0 0 0 -16.21,-0.127 5.672,5.672 0 0 0 -3.139,3.707 c -1.519,8.277 0.27,15.737 6.237,22.2 10.6,11.483 24.293,14.622 39.73,15.881 -1.458,-9.783 -4.094,-18.224 -8.867,-26.009 z"
       id="path12114" />
    <path
       style="opacity:0.65;fill:url(#linearGradient12855)"
       inkscape:connector-curvature="0"
       class="petal"
       d="m 215.931,158.857 c -5.694,-6 -12.358,-10.26 -20.616,-11.62 a 23.04,23.04 0 0 0 -15.883,3.247 5.669,5.669 0 0 0 -2.3,4.278 c 0.236,8.412 3.536,15.337 10.716,20.416 12.759,9.028 26.8,9.251 42.164,7.274 -3.459,-9.265 -7.794,-16.973 -14.081,-23.595 z"
       id="path12116" />
    <path
       style="opacity:0.65;fill:url(#linearGradient12857)"
       inkscape:connector-curvature="0"
       class="petal"
       d="m 220.767,141.182 c -6.817,-4.684 -14.222,-7.467 -22.582,-7.08 a 23.039,23.039 0 0 0 -14.86,6.478 5.671,5.671 0 0 0 -1.361,4.663 c 1.979,8.179 6.648,14.267 14.727,17.742 14.357,6.178 28.14,3.477 42.755,-1.651 -5.311,-8.344 -11.153,-14.982 -18.679,-20.152 z"
       id="path12118" />
    <path
       style="opacity:0.65;fill:url(#linearGradient12859)"
       inkscape:connector-curvature="0"
       class="petal"
       d="m 221.822,122.888 c -7.642,-3.164 -15.463,-4.347 -23.561,-2.23 a 23.031,23.031 0 0 0 -13.188,9.426 5.668,5.668 0 0 0 -0.361,4.844 c 3.636,7.588 9.468,12.573 18.093,14.292 15.328,3.058 28.248,-2.45 41.477,-10.5 -6.928,-7.061 -14.023,-12.34 -22.46,-15.832 z"
       id="path12120" />
    <path
       style="opacity:0.65;fill:url(#linearGradient12861)"
       inkscape:connector-curvature="0"
       class="petal"
       d="m 219.05,104.774 c -8.132,-1.506 -16.028,-1.037 -23.509,2.717 a 23.042,23.042 0 0 0 -10.941,11.962 5.673,5.673 0 0 0 0.654,4.814 c 5.135,6.666 11.876,10.329 20.67,10.218 15.629,-0.2 27.121,-8.27 38.387,-18.9 -8.245,-5.461 -16.282,-9.149 -25.261,-10.811 z"
       id="path12122" />
    <path
       style="opacity:0.65;fill:url(#linearGradient12863)"
       inkscape:connector-curvature="0"
       class="petal"
       d="m 212.573,87.632 c -8.268,0.218 -15.894,2.319 -22.43,7.546 a 23.038,23.038 0 0 0 -8.215,13.975 5.672,5.672 0 0 0 1.64,4.572 c 6.409,5.454 13.764,7.635 22.343,5.7 15.246,-3.441 24.809,-13.728 33.619,-26.467 -9.2,-3.63 -17.83,-5.567 -26.957,-5.326 z"
       id="path12124" />
    <path
       style="opacity:0.65;fill:url(#linearGradient12865)"
       inkscape:connector-curvature="0"
       class="petal"
       d="m 202.674,72.212 c -8.042,1.932 -15.065,5.573 -20.372,12.045 a 23.036,23.036 0 0 0 -5.129,15.378 5.67,5.67 0 0 0 2.555,4.131 c 7.4,4 15.05,4.606 23.039,0.928 14.2,-6.536 21.413,-18.586 27.381,-32.878 -9.748,-1.638 -18.596,-1.738 -27.474,0.396 z"
       id="path12126" />
    <path
       style="opacity:0.65;fill:url(#linearGradient12867)"
       inkscape:connector-curvature="0"
       class="petal"
       d="m 189.785,59.186 c -7.465,3.562 -13.577,8.583 -17.423,16.017 a 23.039,23.039 0 0 0 -1.82,16.108 5.672,5.672 0 0 0 3.358,3.51 c 8.073,2.376 15.679,1.376 22.729,-3.883 12.528,-9.345 17.08,-22.632 19.947,-37.853 -9.876,0.428 -18.551,2.169 -26.791,6.101 z"
       id="path12128" />
    <path
       style="opacity:0.65;fill:url(#linearGradient12869)"
       inkscape:connector-curvature="0"
       class="petal"
       d="m 174.469,49.126 c -6.561,5.036 -11.5,11.218 -13.712,19.289 a 23.046,23.046 0 0 0 1.569,16.135 5.673,5.673 0 0 0 4.015,2.735 c 8.39,0.645 15.622,-1.913 21.424,-8.523 10.312,-11.745 12,-25.688 11.641,-41.173 -9.575,2.471 -17.694,5.976 -24.937,11.537 z"
       id="path12130" />
    <path
       style="opacity:0.65;fill:url(#linearGradient12871)"
       inkscape:connector-curvature="0"
       class="petal"
       d="m 157.4,42.469 c -5.371,6.29 -8.912,13.363 -9.4,21.718 a 23.041,23.041 0 0 0 4.889,15.456 5.671,5.671 0 0 0 4.5,1.84 c 8.341,-1.113 14.883,-5.12 19.185,-12.791 7.644,-13.633 6.4,-27.622 2.826,-42.693 -8.863,4.409 -16.075,9.525 -22,16.47 z"
       id="path12132" />
    <path
       style="opacity:0.65;fill:url(#linearGradient12873)"
       inkscape:connector-curvature="0"
       class="petal"
       d="m 139.312,39.507 c -3.945,7.27 -5.939,14.924 -4.68,23.2 a 23.035,23.035 0 0 0 8,14.1 5.67,5.67 0 0 0 4.779,0.865 c 7.928,-2.823 13.494,-8.1 16.106,-16.5 4.643,-14.924 0.516,-28.349 -6.112,-42.348 -7.746,6.154 -13.738,12.658 -18.093,20.683 z"
       id="path12134" />
    <path
       style="opacity:0.65;fill:url(#linearGradient12875)"
       inkscape:connector-curvature="0"
       class="petal"
       d="m 121.008,40.37 c -2.348,7.931 -2.706,15.833 0.245,23.665 a 23.042,23.042 0 0 0 10.753,12.131 5.671,5.671 0 0 0 4.855,-0.147 c 7.167,-4.41 11.515,-10.731 12.323,-19.489 1.439,-15.563 -5.389,-27.837 -14.782,-40.152 -6.294,7.629 -10.802,15.237 -13.394,23.992 z"
       id="path12136" />
  </g>
</svg>
